<svg xmlns="http://www.w3.org/2000/svg" version="1.1" xmlns:xlink="http://www.w3.org/1999/xlink" xmlns:svgjs="http://svgjs.dev/svgjs" width="2000" height="676" viewBox="0 0 2000 676"><g transform="matrix(1,0,0,1,-1.212109051061475,0.6907404201876943)"><svg viewBox="0 0 396 134" data-background-color="#ffffff" preserveAspectRatio="xMidYMid meet" height="676" width="2000" xmlns="http://www.w3.org/2000/svg" xmlns:xlink="http://www.w3.org/1999/xlink"><g id="tight-bounds" transform="matrix(1,0,0,1,0.23999759211017135,-0.13692191761117556)"><svg viewBox="0 0 395.52 134.27384383522238" height="134.27384383522238" width="395.52"><g><svg viewBox="0 0 616.9978130385109 209.46265168539327" height="134.27384383522238" width="395.52"><g><rect width="15.741298412037754" height="209.46265168539327" x="164.5289271604057" y="0" fill="#8b3c7f" opacity="1" stroke-width="0" stroke="transparent" fill-opacity="1" class="rect-o-0" data-fill-palette-color="primary" rx="1%" id="o-0" data-palette-color="#8b3c7f"></rect></g><g transform="matrix(1,0,0,1,221.47781303851087,17.455220973782772)"><svg viewBox="0 0 395.52 174.55220973782772" height="174.55220973782772" width="395.52"><g id="textblocktransform"><svg viewBox="0 0 395.52 174.55220973782772" height="174.55220973782772" width="395.52" id="textblock"><g><svg viewBox="0 0 395.52 174.55220973782772" height="174.55220973782772" width="395.52"><g transform="matrix(1,0,0,1,0,0)"><svg width="395.52" viewBox="0.05000000447034836 -35 80.0999984741211 35.349998474121094" height="174.55220973782772" data-palette-color="#8b3c7f"><path d="M12.6-35L12.6-10.55Q12.6 0.35 5.05 0.35L5.05 0.35Q2.4 0.35 0.05-0.2L0.05-0.2 0.05-3.35Q2.75-2.9 4.5-2.9L4.5-2.9Q7-2.9 7.93-5.2 8.85-7.5 8.85-11.4L8.85-11.4 8.85-32.05 1.6-32.05 1.6-35 12.6-35ZM33.85-35L45.45 0 41.25 0 37.75-11.05 25.2-11.05 21.75 0 17.8 0 29.3-35 33.85-35ZM26.15-14.3L36.9-14.3 31.55-31.2 26.15-14.3ZM80.15-35L80.15 0 76.4 0 76.4-28.7 65.15-9.2 63.85-9.25 52.6-28.65 52.6 0 48.9 0 48.9-35 53.1-35 64.55-15.75 76.4-35 80.15-35Z" opacity="1" transform="matrix(1,0,0,1,0,0)" fill="#8b3c7f" class="undefined-text-0" data-fill-palette-color="primary" id="text-0"></path></svg></g></svg></g></svg></g></svg></g><g transform="matrix(1,0,0,1,0,14.269643146067395)"><svg viewBox="0 0 123.32133969433828 180.92336539325848" height="180.92336539325848" width="123.32133969433828"><g><svg xmlns="http://www.w3.org/2000/svg" xmlns:xlink="http://www.w3.org/1999/xlink" version="1.1" x="0" y="0" viewBox="-808.0000610351562 549.2999267578125 31.9000244140625 46.8001708984375" style="enable-background:new -808 549.3 31.9 46.8;" xml:space="preserve" width="123.32133969433828" height="180.92336539325848" class="icon-icon-0" data-fill-palette-color="accent" id="icon-0"><g fill="#8b3c7f" data-fill-palette-color="accent"><path d="M-779.3 568.8c-1.1-0.9-2.2-2.3-2.2-3.7V564c1.9-0.6 3-2.3 3.3-3.4l0.2-0.5-3.2-5.9c-1.8-3.8-5.5-4.9-10.9-4.9-5.4 0-8.9 1-10.9 4.9l-3.3 5.9 0.1 0.5c0.3 1.1 1.4 2.9 3.4 3.4v1c0 1.4-1.1 2.9-2.2 3.7-1.9 1.4-3 3.7-3 6.2v11.8c0 1.2 0.3 2.3 0.7 3.4 0.3 1.2 1.2 2.2 2.7 3.2 0.5 0.3 1.1 0.6 1.7 0.9 2.8 1.2 6.6 1.9 10.8 1.9 4.2 0 8-0.7 10.8-1.9 0.6-0.2 1.1-0.5 1.7-0.9 1.5-0.9 2.4-2 2.7-3.2 0.5-1 0.8-2.2 0.8-3.4v-11.6C-776.2 572.5-777.4 570.3-779.3 568.8zM-792.1 551c5.3 0 8.2 1.3 8.2 2.9 0 0.9-2.9 2.9-8.2 2.9-5.3 0-8.4-2-8.2-2.9C-800.2 552.6-797.4 551-792.1 551zM-802.9 583.9c0 1.4 0.1 2.8 0.1 4.2-0.8-1.2-1.3-2.6-1.6-4-0.3-1.4-0.5-2.9-0.5-4.3 0-1.5 0.2-2.9 0.6-4.3 0.4-1.4 0.9-2.8 1.7-4l-0.2 4.2c-0.1 1.4-0.1 2.8-0.1 4.1C-802.9 581.1-802.9 582.5-802.9 583.9zM-781.8 562c-0.9 0.6-2.6 0.5-3.2-0.4l-0.9-1.3-0.9 1.3c-0.5 0.7-1.3 1.2-2.2 1.2s-1.7-0.4-2.2-1.2l-0.9-1.3-0.9 1.3c-0.5 0.7-1.3 1.2-2.2 1.2-0.9 0-1.7-0.4-2.2-1.2l-0.9-1.3-0.9 1.3c-0.5 0.7-1.6 0.8-2.4 0.6-0.5-0.1-0.8-0.4-1.1-0.7-0.1-0.1-0.9-1.1-0.8-1.3l1.9-3.5c2 1.4 5.9 2.4 9.5 2.4 3.5 0 7.4-1.4 9.4-2.7l1.9 4.1C-780.6 560.8-781.6 561.8-781.8 562z" fill="#8b3c7f" data-fill-palette-color="accent"></path></g></svg></g></svg></g></svg></g><defs></defs></svg><rect width="395.52" height="134.27384383522238" fill="none" stroke="none" visibility="hidden"></rect></g></svg></g></svg>